<svg width="1024" height="1024" xmlns="http://www.w3.org/2000/svg">
    <g fill="#fde402" fill-rule="evenodd">
        <path
            d="M492.65 578.382c0-140.95-95.607-255.213-213.546-255.213-117.94 0-213.548 114.263-213.548 255.213s95.609 255.212 213.548 255.212c117.939 0 213.547-114.262 213.547-255.212Z" />
        <path
            d="M717.58 519.74c0-174.442-96.342-315.855-215.186-315.855-118.843 0-215.185 141.413-215.185 315.854 0 174.442 96.342 315.855 215.185 315.855 118.844 0 215.186-141.413 215.186-315.855Z" />
        <path
            d="M956.377 594.173c-.007-137.697-92.662-249.318-206.952-249.313-114.29.006-206.935 111.636-206.929 249.332.007 137.697 92.662 249.318 206.952 249.313 114.29-.006 206.935-111.636 206.929-249.332Z" />
    </g>
    <g fill="#fd68fc" fill-rule="evenodd">
        <path
            d="M492.583 561.604c.005-124.674-95.933-225.745-214.283-225.75C159.95 335.85 64.004 436.914 64 561.588c-.005 124.674 95.933 225.745 214.283 225.75 118.35.004 214.295-101.06 214.3-225.734Z" />
        <path
            d="M721 495.47c0-161.195-95.36-291.868-212.99-291.868-117.632 0-212.992 130.673-212.992 291.868 0 161.194 95.36 291.868 212.991 291.868C625.641 787.338 721 656.664 721 495.47Z" />
        <path
            d="M960 570.558c0-125.217-92.973-226.725-207.662-226.725-114.688 0-207.661 101.508-207.661 226.725s92.973 226.725 207.661 226.725C867.027 797.283 960 695.775 960 570.558Z" />
    </g>
    <path fill="#fff" fill-rule="evenodd"
        d="M751.503 328.924c114.29 0 206.94 89.375 206.94 199.625s-92.65 199.625-206.94 199.625c-48.579 0-93.249-16.147-128.556-43.182-33.967 20.94-75.637 33.272-120.666 33.272-41.628 0-80.385-10.54-112.84-28.677-32.202 18.202-69.961 28.677-110.337 28.677-117.94 0-213.548-89.375-213.548-199.625s95.609-199.626 213.548-199.626c8.082 0 16.06.42 23.908 1.237 24.922-79.219 104.511-137.152 198.842-137.152 99.75 0 183.016 64.782 202.587 151.01 15.12-3.391 30.874-5.184 47.062-5.184Z" />
</svg>